<?xml version="1.0" encoding="UTF-8"?>
<svg version="1.1" viewBox="0 0 24 24" xmlns="http://www.w3.org/2000/svg" xmlns:xlink="http://www.w3.org/1999/xlink">
    <!--Generated by IJSVG (https://github.com/iconjar/IJSVG)-->
    <g fill="#1C1E1F">
        <path d="M21.5,4h-19c-1.378,0 -2.5,1.122 -2.5,2.5v11c0,1.378 1.122,2.5 2.5,2.5h19c1.378,0 2.5,-1.122 2.5,-2.5v-11c0,-1.378 -1.122,-2.5 -2.5,-2.5Zm1.5,13.5c0,0.827 -0.673,1.5 -1.5,1.5h-19c-0.827,0 -1.5,-0.673 -1.5,-1.5v-11c0,-0.827 0.673,-1.5 1.5,-1.5h19c0.827,0 1.5,0.673 1.5,1.5v11Z"></path>
        <path d="M21.913,6.218c-0.155,-0.227 -0.466,-0.286 -0.695,-0.13l-8.201,5.611c-0.618,0.422 -1.416,0.422 -2.033,0l-8.201,-5.611c-0.228,-0.157 -0.539,-0.098 -0.695,0.13c-0.156,0.228 -0.098,0.539 0.13,0.695l8.201,5.611c0.48,0.329 1.031,0.493 1.581,0.493c0.55,0 1.101,-0.164 1.582,-0.493l8.201,-5.611c0.228,-0.156 0.286,-0.467 0.13,-0.695Z"></path>
        <path d="M8.179,12.115l-6,5c-0.212,0.177 -0.241,0.493 -0.064,0.705c0.099,0.119 0.241,0.18 0.385,0.18c0.113,0 0.227,-0.038 0.32,-0.116l6,-5c0.212,-0.177 0.241,-0.493 0.064,-0.705c-0.178,-0.211 -0.493,-0.24 -0.705,-0.064Z"></path>
        <path d="M15.821,12.115c-0.213,-0.176 -0.527,-0.147 -0.705,0.064c-0.177,0.213 -0.148,0.528 0.064,0.705l6,5c0.094,0.078 0.207,0.116 0.32,0.116c0.143,0 0.285,-0.061 0.385,-0.18c0.177,-0.213 0.148,-0.528 -0.064,-0.705l-6,-5Z"></path>
    </g>
</svg>