<?xml version="1.0" encoding="UTF-8"?>
<svg version="1.1" viewBox="0 0 448.1 512" xmlns="http://www.w3.org/2000/svg" xmlns:xlink="http://www.w3.org/1999/xlink">
    <!--Generated by IJSVG (https://github.com/iconjar/IJSVG)-->
    <path d="M100.3,448h-92.9v-299.1h92.9v299.1Zm-46.5,-339.9c-29.7,-2.84217e-14 -53.8,-24.6 -53.8,-54.3c0,-29.7 24.1,-53.8 53.8,-53.8c29.7,0 53.8,24.1 53.8,53.8c0,29.7 -24.1,54.3 -53.8,54.3Zm394.2,339.9h-92.7v-145.6c0,-34.7 -0.7,-79.2 -48.3,-79.2c-48.3,0 -55.7,37.7 -55.7,76.7v148.1h-92.8v-299.1h89.1v40.8h1.3c12.4,-23.5 42.7,-48.3 87.9,-48.3c94,0 111.3,61.9 111.3,142.3v164.3h-0.1Z" fill="#1C1E1F"></path>
</svg>