<?xml version="1.0" encoding="UTF-8"?>
<svg version="1.1" viewBox="0 0 48 48" xmlns="http://www.w3.org/2000/svg" xmlns:xlink="http://www.w3.org/1999/xlink">
    <!--Generated by IJSVG (https://github.com/iconjar/IJSVG)-->
    <path d="M827.199,288.8v0h-6.7995v7.2h-4.8v-24h11.5995c4.6395,0 8.4,3.7605 8.4,8.4c0,4.6395 -3.7605,8.4 -8.4,8.4m-3.1995,-28.8c-13.2555,0 -24,10.7445 -24,24c0,13.2555 10.7445,24 24,24c13.254,0 24,-10.7445 24,-24c0,-13.2555 -10.746,-24 -24,-24m3.1995,16.8v0h-6.7995v7.2h6.7995c1.989,0 3.6,-1.6125 3.6,-3.6c0,-1.9875 -1.611,-3.6 -3.6,-3.6" transform="matrix(1,0,0,1,-800,-260)" fill-rule="evenodd" fill="#1C1E1F" stroke="none"></path>
</svg>