<?xml version="1.0" encoding="utf-8"?>
<!-- Generator: Adobe Illustrator 25.0.1, SVG Export Plug-In . SVG Version: 6.00 Build 0)  -->
<svg version="1.1" id="Layer_1" xmlns="http://www.w3.org/2000/svg" xmlns:xlink="http://www.w3.org/1999/xlink" x="0px" y="0px"
	 viewBox="0 0 100 100" style="enable-background:new 0 0 100 100;" xml:space="preserve">
<style type="text/css">
	.st0{fill:#1C1E1F;}
</style>
<g>
	<path class="st0" d="M90,6c2.2,0,4,1.8,4,4v80c0,2.2-1.8,4-4,4H10c-2.2,0-4-1.8-4-4V10c0-2.2,1.8-4,4-4H90 M90,0H10
		C4.5,0,0,4.5,0,10v80c0,5.5,4.5,10,10,10h80c5.5,0,10-4.5,10-10V10C100,4.5,95.5,0,90,0L90,0z"/>
</g>
<path class="st0" d="M50,25L25,75h25l25-50H50z"/>
</svg>
