<?xml version="1.0" encoding="UTF-8"?>
<svg width="64" height="64" version="1.1" viewBox="0 0 64 64" xmlns="http://www.w3.org/2000/svg" xmlns:xlink="http://www.w3.org/1999/xlink">
    <!--Generated by IJSVG (https://github.com/iconjar/IJSVG)-->
    <g transform="scale(2.66667)">
        <path fill="#fff" d="M11.999,7.377c-2.554,0 -4.623,2.07 -4.623,4.623c0,2.554 2.069,4.624 4.623,4.624c2.552,0 4.623,-2.07 4.623,-4.624c0,-2.553 -2.071,-4.623 -4.623,-4.623v0Zm0,7.627c-1.659,0 -3.004,-1.345 -3.004,-3.003c0,-1.659 1.345,-3.003 3.004,-3.003c1.659,0 3.002,1.344 3.002,3.003c-1.77636e-15,1.658 -1.343,3.003 -3.002,3.003v0Z"></path>
        <path fill="#fff" d="M17.5683,6.44474c0.420985,0.420985 0.420985,1.10354 0,1.52452c-0.420985,0.420985 -1.10354,0.420985 -1.52452,0c-0.420985,-0.420985 -0.420985,-1.10354 0,-1.52452c0.420985,-0.420985 1.10354,-0.420985 1.52452,0"></path>
        <path fill="#fff" d="M20.533,6.111c-0.469,-1.209 -1.424,-2.165 -2.633,-2.632c-0.699,-0.263 -1.438,-0.404 -2.186,-0.42c-0.963,-0.042 -1.268,-0.054 -3.71,-0.054c-2.442,0 -2.755,0 -3.71,0.054c-0.746,0.015 -1.485,0.156 -2.184,0.42c-1.21,0.467 -2.165,1.423 -2.633,2.632c-0.263,0.7 -0.404,1.438 -0.419,2.186c-0.043,0.962 -0.056,1.267 -0.056,3.71c0,2.442 0,2.753 0.056,3.71c0.015,0.748 0.156,1.486 0.419,2.187c0.469,1.208 1.424,2.164 2.634,2.632c0.696,0.272 1.435,0.426 2.185,0.45c0.963,0.042 1.268,0.055 3.71,0.055c2.442,0 2.755,0 3.71,-0.055c0.747,-0.015 1.486,-0.157 2.186,-0.419c1.209,-0.469 2.164,-1.424 2.633,-2.633c0.263,-0.7 0.404,-1.438 0.419,-2.186c0.043,-0.962 0.056,-1.267 0.056,-3.71c0,-2.443 0,-2.753 -0.056,-3.71c-0.013,-0.758 -0.153,-1.509 -0.421,-2.217Zm-1.218,9.532c-0.007,0.576 -0.111,1.147 -0.311,1.688c-0.305,0.787 -0.926,1.409 -1.712,1.711c-0.535,0.199 -1.099,0.303 -1.67,0.311c-0.95,0.044 -1.218,0.055 -3.654,0.055c-2.438,0 -2.687,0 -3.655,-0.055c-0.569,-0.007 -1.135,-0.112 -1.669,-0.311c-0.789,-0.301 -1.414,-0.923 -1.719,-1.711c-0.196,-0.534 -0.302,-1.099 -0.311,-1.669c-0.043,-0.95 -0.053,-1.218 -0.053,-3.654c0,-2.437 0,-2.686 0.053,-3.655c0.007,-0.576 0.111,-1.146 0.311,-1.687c0.305,-0.789 0.93,-1.41 1.719,-1.712c0.534,-0.198 1.1,-0.303 1.669,-0.311c0.951,-0.043 1.218,-0.055 3.655,-0.055c2.437,0 2.687,0 3.654,0.055c0.571,0.007 1.135,0.112 1.67,0.311c0.786,0.303 1.407,0.925 1.712,1.712c0.196,0.534 0.302,1.099 0.311,1.669c0.043,0.951 0.054,1.218 0.054,3.655c0,2.436 0,2.698 -0.043,3.654h-0.011Z"></path>
    </g>
</svg>