<?xml version="1.0" encoding="UTF-8"?>
<svg width="64" height="64" version="1.1" viewBox="0 0 64 64" xmlns="http://www.w3.org/2000/svg" xmlns:xlink="http://www.w3.org/1999/xlink">
    <!--Generated by IJSVG (https://github.com/iconjar/IJSVG)-->
    <path d="M162.7,210c-1.8,3.3 -25.2,44.4 -70.1,123.5c-4.9,8.3 -10.8,12.5 -17.7,12.5h-65.1c-7.7,0 -12.1,-7.5 -8.5,-14.4l69,-121.3c0.2,0 0.2,-0.1 0,-0.3l-43.9,-75.6c-4.3,-7.8 0.3,-14.1 8.5,-14.1h65.1c7.3,0 13.3,4.1 18,12.2l44.7,77.5Zm219.9,-163.9l-144,253v0.3l91.6,166.6c3.9,7.1 0.2,14.1 -8.5,14.1h-65.2c-7.6,0 -13.6,-4 -18,-12.2l-92.4,-168.5c3.3,-5.8 51.5,-90.8 144.8,-255.2c4.6,-8.1 10.4,-12.2 17.5,-12.2h65.7c8,0 12.3,6.7 8.5,14.1Z" transform="scale(0.125)" fill="#fff"></path>
</svg>