<?xml version="1.0" encoding="UTF-8"?>
<svg width="64" height="64" version="1.1" viewBox="0 0 64 64" xmlns="http://www.w3.org/2000/svg" xmlns:xlink="http://www.w3.org/1999/xlink">
    <!--Generated by IJSVG (https://github.com/iconjar/IJSVG)-->
    <path d="M19.633,7.997c0.013,0.175 0.013,0.349 0.013,0.523c0,5.325 -4.053,11.461 -11.46,11.461c-2.282,0 -4.402,-0.661 -6.186,-1.809c0.324,0.037 0.636,0.05 0.973,0.05c1.883,0 3.616,-0.636 5.001,-1.721c-1.771,-0.037 -3.255,-1.197 -3.767,-2.793c0.249,0.037 0.499,0.062 0.761,0.062c0.361,0 0.724,-0.05 1.061,-0.137c-1.847,-0.374 -3.23,-1.995 -3.23,-3.953v-0.05c0.537,0.299 1.16,0.486 1.82,0.511c-1.085,-0.722 -1.796,-1.957 -1.796,-3.354c0,-0.748 0.199,-1.434 0.548,-2.032c1.983,2.443 4.964,4.04 8.306,4.215c-0.062,-0.3 -0.1,-0.611 -0.1,-0.923c0,-2.22 1.796,-4.028 4.028,-4.028c1.16,0 2.207,0.486 2.943,1.272c0.91,-0.175 1.782,-0.512 2.556,-0.973c-0.299,0.935 -0.936,1.721 -1.771,2.22c0.811,-0.088 1.597,-0.312 2.319,-0.624c-0.548,0.798 -1.233,1.509 -2.019,2.083Z" transform="scale(2.66667)" fill="#fff"></path>
</svg>